<svg xmlns="http://www.w3.org/2000/svg" viewBox="0 0 64 64">
<rect width="64" height="64" rx="12" fill="#9fd6f0"/>
<rect y="40" width="64" height="24" fill="#a6e35f"/>
<rect y="40" width="64" height="3" fill="#6f9e3a"/>
<rect y="14" width="64" height="20" fill="#5b5f6b"/>
<g fill="#f3f3f3"><rect x="3" y="23" width="9" height="2"/><rect x="18" y="23" width="9" height="2"/><rect x="48" y="23" width="9" height="2"/></g>
<rect x="38" y="16" width="20" height="9" rx="1" fill="#e8463b"/>
<rect x="41" y="12" width="11" height="6" fill="#c9372e"/>
<rect x="43" y="13" width="7" height="4" fill="#3c5f7a"/>
<rect x="40" y="25" width="4" height="3" fill="#24242a"/><rect x="52" y="25" width="4" height="3" fill="#24242a"/>
<rect x="0" y="0" width="64" height="64" rx="12" fill="none"/>
<ellipse cx="31" cy="57" rx="11" ry="2.5" fill="#000" opacity="0.18"/>
<rect x="25" y="52" width="2.5" height="5" fill="#ff9a1f"/><rect x="34" y="52" width="2.5" height="5" fill="#ff9a1f"/>
<rect x="21" y="32" width="20" height="21" fill="#f6f4ef"/>
<rect x="37" y="32" width="4" height="21" fill="#e2dfd6"/>
<rect x="17" y="40" width="4" height="7" fill="#e2dfd6"/>
<rect x="27" y="27" width="6" height="5" fill="#e8372f"/>
<rect x="14" y="38" width="7" height="4" fill="#ff9a1f"/>
<rect x="17" y="42" width="4" height="5" fill="#e8372f"/>
<rect x="24" y="36" width="3" height="3" fill="#1d1d22"/>
</svg>
